# xmcd CD database file
#
# Track frame offsets:
#	150
#	23835
#	33511
#	62315
#	88043
#	110845
#	130628
#	153111
#	163332
#	179964
#	193879
#	217956
#	242896
#	259064
#
# Disc length: 3719 seconds
#
# Revision: 1
# Processed by: cddbd v1.5.2PL0 Copyright (c) Steve Scherf et al.
# Submitted via: CDex 1.51
#
DISCID=c60e850e
DTITLE=Summer and Fall - Into the Blue
DYEAR=2012
DGENRE=New Age
TTITLE0=Sparta
TTITLE1=Pays des dragons
TTITLE2=Sterne im Wasserglas
TTITLE3=Partings
TTITLE4=Sadko im Märchen
TTITLE5=Choices
TTITLE6=Scars
TTITLE7=Requiem for Alyssandra
TTITLE8=Keeper
TTITLE9=Spectre d'une rose
TTITLE10=Stimmen im Wind
TTITLE11=Paper Boats
TTITLE12=Diarmuid Dubh and Fionan Leigh
TTITLE13=Sommer im Herzen
EXTD=YEAR: 2012
EXTT0=
EXTT1=
EXTT2=
EXTT3=
EXTT4=
EXTT5=
EXTT6=
EXTT7=
EXTT8=
EXTT9=
EXTT10=
EXTT11=
EXTT12=
EXTT13=
PLAYORDER=
